#tb 0: 1/25
0,          2,          2,        1,   152064, 0x9744ac59
0,          4,          4,        1,   152064, 0x3eba88bf
0,          6,          6,        1,   152064, 0xd4105c5a
0,          8,          8,        1,   152064, 0x452966a3
0,         10,         10,        1,   152064, 0x30071add
0,         12,         12,        1,   152064, 0x0eb75245
0,         14,         14,        1,   152064, 0x4daa80fa
0,         16,         16,        1,   152064, 0xf53a43a1
0,         18,         18,        1,   152064, 0xa55ab43d
0,         20,         20,        1,   152064, 0x915ec82e
0,         22,         22,        1,   152064, 0xadce2f9a
0,         24,         24,        1,   152064, 0xf7a25715
0,         26,         26,        1,   152064, 0x90c91c7d
0,         28,         28,        1,   152064, 0x4f0df4ef
0,         30,         30,        1,   152064, 0xf6e0783c
0,         32,         32,        1,   152064, 0x417c8ca8
0,         34,         34,        1,   152064, 0xd33d29d8
0,         36,         36,        1,   152064, 0xc9723fa3
0,         38,         38,        1,   152064, 0x3e4f22f4
0,         40,         40,        1,   152064, 0xd5aa7bd8
0,         42,         42,        1,   152064, 0x2a425b54
0,         44,         44,        1,   152064, 0x2d400788
0,         46,         46,        1,   152064, 0x12fab3a4
0,         48,         48,        1,   152064, 0x5544f881
0,         50,         50,        1,   152064, 0xd0612cc5
0,         52,         52,        1,   152064, 0x157b3654
0,         54,         54,        1,   152064, 0x04b61fe0
0,         56,         56,        1,   152064, 0x897d600a
0,         58,         58,        1,   152064, 0x0d94fa29
0,         60,         60,        1,   152064, 0xc0fe249d
0,         62,         62,        1,   152064, 0x65abc1d6
0,         64,         64,        1,   152064, 0x2bd5f09d
0,         66,         66,        1,   152064, 0xd3eebd28
0,         68,         68,        1,   152064, 0x93458649
0,         70,         70,        1,   152064, 0x55e793a6
0,         72,         72,        1,   152064, 0x9fc378ce
0,         74,         74,        1,   152064, 0x24c32731
0,         76,         76,        1,   152064, 0x3c321c50
0,         78,         78,        1,   152064, 0xcef3ca8b
0,         80,         80,        1,   152064, 0x97116676
0,         82,         82,        1,   152064, 0x73ae78f6
0,         84,         84,        1,   152064, 0xdeec219e
0,         86,         86,        1,   152064, 0xc061d584
0,         88,         88,        1,   152064, 0xcf47f6c9
0,         90,         90,        1,   152064, 0x280d3a2d
0,         92,         92,        1,   152064, 0xb660c846
0,         94,         94,        1,   152064, 0xe167c588
0,         96,         96,        1,   152064, 0x08f808de
0,         98,         98,        1,   152064, 0x9de65c0b
0,        100,        100,        1,   152064, 0xc52a1937
0,        102,        102,        1,   152064, 0xf5a4d86f
0,        104,        104,        1,   152064, 0xbef86d37
0,        106,        106,        1,   152064, 0xa227b21b
0,        108,        108,        1,   152064, 0x0601ad35
0,        110,        110,        1,   152064, 0x15198730
0,        112,        112,        1,   152064, 0x9af764c6
0,        114,        114,        1,   152064, 0x1a95e99a
0,        116,        116,        1,   152064, 0x6bef5aa8
0,        118,        118,        1,   152064, 0x92f03267
0,        120,        120,        1,   152064, 0x0a3d56cb
0,        122,        122,        1,   152064, 0xd9c9f62e
0,        124,        124,        1,   152064, 0xcd81ea16
0,        126,        126,        1,   152064, 0x8ed789c0
0,        128,        128,        1,   152064, 0x5a5e356f
0,        130,        130,        1,   152064, 0x2f260ebf
0,        132,        132,        1,   152064, 0xa0379c89
0,        134,        134,        1,   152064, 0x100cb40c
0,        136,        136,        1,   152064, 0xaad2220a
0,        138,        138,        1,   152064, 0xec82aa8d
0,        140,        140,        1,   152064, 0x91088303
0,        142,        142,        1,   152064, 0x0cce0e9e
0,        144,        144,        1,   152064, 0xf3bc716a
0,        146,        146,        1,   152064, 0x989879c5
0,        148,        148,        1,   152064, 0x491297a0
0,        150,        150,        1,   152064, 0xdc16f30d
0,        152,        152,        1,   152064, 0xb9bfdd57
0,        154,        154,        1,   152064, 0x5fba59c2
0,        156,        156,        1,   152064, 0x89c40529
0,        158,        158,        1,   152064, 0x1b3e7b54
0,        160,        160,        1,   152064, 0x5d0d7903
0,        162,        162,        1,   152064, 0x2e3434e1
0,        164,        164,        1,   152064, 0x1f47a276
0,        166,        166,        1,   152064, 0xa22de2b1
0,        168,        168,        1,   152064, 0x77344844
0,        170,        170,        1,   152064, 0x6a6b3fce
0,        172,        172,        1,   152064, 0x82660651
0,        174,        174,        1,   152064, 0x51e67cc9
0,        176,        176,        1,   152064, 0xb790ae51
0,        178,        178,        1,   152064, 0x906bc6b6
0,        180,        180,        1,   152064, 0x55c5dc21
0,        182,        182,        1,   152064, 0xb51f3004
0,        184,        184,        1,   152064, 0x68500a25
0,        186,        186,        1,   152064, 0x5dbc812e
0,        188,        188,        1,   152064, 0x895eb6ed
0,        190,        190,        1,   152064, 0x2f5594fc
0,        192,        192,        1,   152064, 0x04a222a9
0,        194,        194,        1,   152064, 0x90036f6a
0,        196,        196,        1,   152064, 0x8b8b064c
0,        198,        198,        1,   152064, 0xd47c7334
0,        199,        199,        1,   152064, 0x13f06213
